<mxfile host="app.diagrams.net" agent="Mozilla/5.0 (Windows NT 10.0; Win64; x64) AppleWebKit/537.36 (KHTML, like Gecko) Chrome/136.0.0.0 Safari/537.36" version="27.0.8">
  <diagram name="Страница — 1" id="7hORFfbQdyGZ4-bMM_ta">
    <mxGraphModel dx="1665" dy="751" grid="1" gridSize="10" guides="1" tooltips="1" connect="1" arrows="1" fold="1" page="1" pageScale="1" pageWidth="827" pageHeight="1169" math="0" shadow="0">
      <root>
        <mxCell id="0" />
        <mxCell id="1" parent="0" />
        <mxCell id="iluGJ-wn3Nu-rTpnkxvv-8" style="edgeStyle=orthogonalEdgeStyle;rounded=0;orthogonalLoop=1;jettySize=auto;html=1;exitX=0.25;exitY=1;exitDx=0;exitDy=0;entryX=0.25;entryY=0;entryDx=0;entryDy=0;" edge="1" parent="1" source="iluGJ-wn3Nu-rTpnkxvv-1" target="iluGJ-wn3Nu-rTpnkxvv-2">
          <mxGeometry relative="1" as="geometry" />
        </mxCell>
        <mxCell id="iluGJ-wn3Nu-rTpnkxvv-1" value="Главная страница" style="rounded=0;whiteSpace=wrap;html=1;" vertex="1" parent="1">
          <mxGeometry x="354" y="120" width="120" height="60" as="geometry" />
        </mxCell>
        <mxCell id="iluGJ-wn3Nu-rTpnkxvv-7" style="edgeStyle=orthogonalEdgeStyle;rounded=0;orthogonalLoop=1;jettySize=auto;html=1;exitX=0.5;exitY=0;exitDx=0;exitDy=0;entryX=0.5;entryY=1;entryDx=0;entryDy=0;" edge="1" parent="1" source="iluGJ-wn3Nu-rTpnkxvv-2" target="iluGJ-wn3Nu-rTpnkxvv-1">
          <mxGeometry relative="1" as="geometry" />
        </mxCell>
        <mxCell id="iluGJ-wn3Nu-rTpnkxvv-10" style="edgeStyle=orthogonalEdgeStyle;rounded=0;orthogonalLoop=1;jettySize=auto;html=1;exitX=0.25;exitY=1;exitDx=0;exitDy=0;entryX=0.25;entryY=0;entryDx=0;entryDy=0;" edge="1" parent="1" source="iluGJ-wn3Nu-rTpnkxvv-2" target="iluGJ-wn3Nu-rTpnkxvv-3">
          <mxGeometry relative="1" as="geometry" />
        </mxCell>
        <mxCell id="iluGJ-wn3Nu-rTpnkxvv-2" value="Упражнения" style="whiteSpace=wrap;html=1;" vertex="1" parent="1">
          <mxGeometry x="354" y="200" width="120" height="60" as="geometry" />
        </mxCell>
        <mxCell id="iluGJ-wn3Nu-rTpnkxvv-9" style="edgeStyle=orthogonalEdgeStyle;rounded=0;orthogonalLoop=1;jettySize=auto;html=1;exitX=0.5;exitY=0;exitDx=0;exitDy=0;entryX=0.5;entryY=1;entryDx=0;entryDy=0;" edge="1" parent="1" source="iluGJ-wn3Nu-rTpnkxvv-3" target="iluGJ-wn3Nu-rTpnkxvv-2">
          <mxGeometry relative="1" as="geometry" />
        </mxCell>
        <mxCell id="iluGJ-wn3Nu-rTpnkxvv-12" style="edgeStyle=orthogonalEdgeStyle;rounded=0;orthogonalLoop=1;jettySize=auto;html=1;exitX=0.25;exitY=1;exitDx=0;exitDy=0;entryX=0.25;entryY=0;entryDx=0;entryDy=0;" edge="1" parent="1" source="iluGJ-wn3Nu-rTpnkxvv-3" target="iluGJ-wn3Nu-rTpnkxvv-4">
          <mxGeometry relative="1" as="geometry" />
        </mxCell>
        <mxCell id="iluGJ-wn3Nu-rTpnkxvv-3" value="Журнал тренировок" style="rounded=0;whiteSpace=wrap;html=1;" vertex="1" parent="1">
          <mxGeometry x="354" y="280" width="120" height="60" as="geometry" />
        </mxCell>
        <mxCell id="iluGJ-wn3Nu-rTpnkxvv-11" style="edgeStyle=orthogonalEdgeStyle;rounded=0;orthogonalLoop=1;jettySize=auto;html=1;exitX=0.5;exitY=0;exitDx=0;exitDy=0;entryX=0.5;entryY=1;entryDx=0;entryDy=0;" edge="1" parent="1" source="iluGJ-wn3Nu-rTpnkxvv-4" target="iluGJ-wn3Nu-rTpnkxvv-3">
          <mxGeometry relative="1" as="geometry" />
        </mxCell>
        <mxCell id="iluGJ-wn3Nu-rTpnkxvv-13" style="edgeStyle=orthogonalEdgeStyle;rounded=0;orthogonalLoop=1;jettySize=auto;html=1;exitX=0.25;exitY=1;exitDx=0;exitDy=0;entryX=0.25;entryY=0;entryDx=0;entryDy=0;" edge="1" parent="1" source="iluGJ-wn3Nu-rTpnkxvv-4" target="iluGJ-wn3Nu-rTpnkxvv-5">
          <mxGeometry relative="1" as="geometry" />
        </mxCell>
        <mxCell id="iluGJ-wn3Nu-rTpnkxvv-4" value="Весовой журнал" style="rounded=0;whiteSpace=wrap;html=1;" vertex="1" parent="1">
          <mxGeometry x="354" y="360" width="120" height="60" as="geometry" />
        </mxCell>
        <mxCell id="iluGJ-wn3Nu-rTpnkxvv-14" style="edgeStyle=orthogonalEdgeStyle;rounded=0;orthogonalLoop=1;jettySize=auto;html=1;exitX=0.5;exitY=0;exitDx=0;exitDy=0;entryX=0.5;entryY=1;entryDx=0;entryDy=0;" edge="1" parent="1" source="iluGJ-wn3Nu-rTpnkxvv-5" target="iluGJ-wn3Nu-rTpnkxvv-4">
          <mxGeometry relative="1" as="geometry" />
        </mxCell>
        <mxCell id="iluGJ-wn3Nu-rTpnkxvv-15" style="edgeStyle=orthogonalEdgeStyle;rounded=0;orthogonalLoop=1;jettySize=auto;html=1;exitX=0.25;exitY=1;exitDx=0;exitDy=0;entryX=0.25;entryY=0;entryDx=0;entryDy=0;" edge="1" parent="1" source="iluGJ-wn3Nu-rTpnkxvv-5" target="iluGJ-wn3Nu-rTpnkxvv-6">
          <mxGeometry relative="1" as="geometry" />
        </mxCell>
        <mxCell id="iluGJ-wn3Nu-rTpnkxvv-5" value="Трекер питания" style="rounded=0;whiteSpace=wrap;html=1;" vertex="1" parent="1">
          <mxGeometry x="354" y="440" width="120" height="60" as="geometry" />
        </mxCell>
        <mxCell id="iluGJ-wn3Nu-rTpnkxvv-16" style="edgeStyle=orthogonalEdgeStyle;rounded=0;orthogonalLoop=1;jettySize=auto;html=1;exitX=0.5;exitY=0;exitDx=0;exitDy=0;entryX=0.5;entryY=1;entryDx=0;entryDy=0;" edge="1" parent="1" source="iluGJ-wn3Nu-rTpnkxvv-6" target="iluGJ-wn3Nu-rTpnkxvv-5">
          <mxGeometry relative="1" as="geometry" />
        </mxCell>
        <mxCell id="iluGJ-wn3Nu-rTpnkxvv-6" value="Результаты" style="rounded=0;whiteSpace=wrap;html=1;" vertex="1" parent="1">
          <mxGeometry x="354" y="520" width="120" height="60" as="geometry" />
        </mxCell>
      </root>
    </mxGraphModel>
  </diagram>
</mxfile>
